<svg xmlns="http://www.w3.org/2000/svg" viewBox="-24.00 -24.00 802.89 209.20" width="803" height="209"><title>NativaCode logo com slogan</title><g id="simbolo" transform="translate(-25.792 -19.344) scale(3.22400)"><g fill="#FFFFFF"><rect x="8" y="10" width="14" height="46" rx="3"/><path d="M8 13 Q8 10 11 10 H19 Q22 10 24 13 L56 53 Q57 56 54 56 H45 Q42 56 40 53 Z"/><rect x="42" y="26" width="14" height="30" rx="3"/></g><path d="M42 23 C42 14 47 8 57 6 C58 15 53 21 42 23 Z" fill="#14FFEC"/></g><g id="wordmark"><path fill="#FFFFFF" d="M205.56640000000002 96.56582V40.09382000000001H217.0064V64.32582H215.96640000000002Q215.96640000000002 55.69382 218.25440000000003 49.921820000000004Q220.54240000000001 44.149820000000005 225.06640000000002 41.237820000000006Q229.59040000000002 38.32582000000001 236.3504 38.32582000000001H236.9744Q247.0624 38.32582000000001 252.2624 44.82582000000001Q257.4624 51.32582000000001 257.4624 64.22182000000001V96.56582H243.0064V62.97382Q243.0064 57.77382 240.04240000000001 54.549820000000004Q237.07840000000002 51.32582000000001 231.8784 51.32582000000001Q226.5744 51.32582000000001 223.29840000000002 54.601820000000004Q220.0224 57.87782000000001 220.0224 63.38982V96.56582Z M303.5344 96.56582V79.82182H301.1424V61.20582Q301.1424 56.317820000000005 298.7504 53.92582Q296.35839999999996 51.533820000000006 291.3664 51.533820000000006Q288.7664 51.533820000000006 285.1264 51.637820000000005Q281.4864 51.741820000000004 277.7944 51.89782Q274.1024 52.05382 271.1904 52.26182000000001V39.98982Q273.5824 39.78182 276.59839999999997 39.573820000000005Q279.6144 39.36582000000001 282.78639999999996 39.31382000000001Q285.9584 39.26182000000001 288.7664 39.26182000000001Q297.50239999999997 39.26182000000001 303.2744 41.54982000000001Q309.0464 43.83782000000001 312.0104 48.725820000000006Q314.9744 53.613820000000004 314.9744 61.51782V96.56582ZM285.33439999999996 98.02182Q279.1984 98.02182 274.57039999999995 95.83782Q269.94239999999996 93.65382 267.3944 89.59782Q264.8464 85.54182 264.8464 79.82182Q264.8464 73.58182000000001 267.9144 69.62982Q270.9824 65.67782 276.54639999999995 63.70182Q282.11039999999997 61.725820000000006 289.59839999999997 61.725820000000006H302.7024V70.35782H289.3904Q284.3984 70.35782 281.7464 72.80182Q279.0944 75.24582000000001 279.0944 79.09382000000001Q279.0944 82.94182 281.7464 85.33382Q284.3984 87.72582 289.3904 87.72582Q292.40639999999996 87.72582 294.95439999999996 86.63382Q297.50239999999997 85.54182 299.2184 82.88982Q300.9344 80.23782 301.1424 75.66182L304.6784 79.71782Q304.1584 85.64582 301.8184 89.70182Q299.47839999999997 93.75782000000001 295.3704 95.88982000000001Q291.2624 98.02182 285.33439999999996 98.02182Z M351.3744 97.29382Q343.57439999999997 97.29382 338.5304 95.26581999999999Q333.4864 93.23782 330.9904 88.40182Q328.4944 83.56582 328.4944 75.34982000000001L328.59839999999997 24.181820000000002H342.1184L342.01439999999997 76.28582Q342.01439999999997 80.44582 344.2504 82.68182Q346.4864 84.91782 350.64639999999997 84.91782H359.4864V97.29382ZM319.55039999999997 50.701820000000005V40.09382000000001H359.4864V50.701820000000005Z M370.71840000000003 96.56582V40.09382000000001H385.1744V96.56582ZM362.81440000000003 50.90982V40.09382000000001H385.1744V50.90982ZM376.0224 33.33382Q371.7584 33.33382 369.73040000000003 31.097820000000006Q367.7024 28.86182000000001 367.7024 25.429820000000007Q367.7024 21.997820000000004 369.73040000000003 19.813820000000007Q371.7584 17.62982000000001 376.0224 17.62982000000001Q380.2864 17.62982000000001 382.2624 19.813820000000007Q384.2384 21.997820000000004 384.2384 25.429820000000007Q384.2384 28.86182000000001 382.2624 31.097820000000006Q380.2864 33.33382 376.0224 33.33382Z M409.5104 96.56582 391.8304 40.09382000000001H406.7024L423.6544 96.56582ZM413.77439999999996 96.56582V84.70982000000001H429.06239999999997V96.56582ZM419.4944 96.56582 434.0544 40.09382000000001H447.99039999999997L432.7024 96.56582Z M488.7584 96.56582V79.82182H486.3664V61.20582Q486.3664 56.317820000000005 483.9744 53.92582Q481.5824 51.533820000000006 476.5904 51.533820000000006Q473.99039999999997 51.533820000000006 470.3504 51.637820000000005Q466.7104 51.741820000000004 463.0184 51.89782Q459.3264 52.05382 456.4144 52.26182000000001V39.98982Q458.8064 39.78182 461.8224 39.573820000000005Q464.8384 39.36582000000001 468.0104 39.31382000000001Q471.1824 39.26182000000001 473.99039999999997 39.26182000000001Q482.72639999999996 39.26182000000001 488.49839999999995 41.54982000000001Q494.2704 43.83782000000001 497.2344 48.725820000000006Q500.1984 53.613820000000004 500.1984 61.51782V96.56582ZM470.5584 98.02182Q464.4224 98.02182 459.7944 95.83782Q455.16639999999995 93.65382 452.61839999999995 89.59782Q450.07039999999995 85.54182 450.07039999999995 79.82182Q450.07039999999995 73.58182000000001 453.13839999999993 69.62982Q456.2064 65.67782 461.7704 63.70182Q467.33439999999996 61.725820000000006 474.82239999999996 61.725820000000006H487.9264V70.35782H474.6144Q469.62239999999997 70.35782 466.9704 72.80182Q464.3184 75.24582000000001 464.3184 79.09382000000001Q464.3184 82.94182 466.9704 85.33382Q469.62239999999997 87.72582 474.6144 87.72582Q477.63039999999995 87.72582 480.17839999999995 86.63382Q482.72639999999996 85.54182 484.44239999999996 82.88982Q486.1584 80.23782 486.3664 75.66182L489.9024 79.71782Q489.38239999999996 85.64582 487.04239999999993 89.70182Q484.70239999999995 93.75782000000001 480.59439999999995 95.88982000000001Q476.4864 98.02182 470.5584 98.02182Z"/><path fill="#14FFEC" d="M537.1184 98.33382Q530.1504 98.33382 525.0024 95.88982Q519.8543999999999 93.44582 516.4223999999999 89.23382000000001Q512.9904 85.02182 511.2744 79.92582Q509.5584 74.82982 509.5584 69.62982V68.17382Q509.5584 62.869820000000004 511.2744 57.82582000000001Q512.9904 52.78182 516.4223999999999 48.673820000000006Q519.8543999999999 44.56582 525.0024 42.12182Q530.1504 39.677820000000004 536.9104 39.677820000000004Q543.7744 39.677820000000004 549.1304 42.173820000000006Q554.4864 44.66982 557.8144 49.24582Q561.1424 53.82182 561.7664 60.061820000000004H554.2783999999999Q553.3424 54.341820000000006 548.9223999999999 50.545820000000006Q544.5024 46.74982000000001 536.9104 46.74982000000001Q530.3584 46.74982000000001 526.0424 49.713820000000005Q521.7264 52.677820000000004 519.5424 57.72182000000001Q517.3584 62.765820000000005 517.3584 68.90182Q517.3584 74.93382 519.5424 80.08182Q521.7264 85.22982 526.0944 88.29782Q530.4624 91.36582 537.1184 91.36582Q542.2144 91.36582 546.0103999999999 89.54581999999999Q549.8063999999999 87.72582 552.1464 84.60582Q554.4864 81.48582 554.9024 77.74182H562.3904Q561.9744 83.98182 558.4903999999999 88.60982Q555.0064 93.23782 549.4944 95.78582Q543.9824 98.33382 537.1184 98.33382Z M597.7504 98.33382Q590.6784 98.33382 585.3224 95.88982Q579.9664 93.44582 576.2744 89.33782Q572.5824 85.22982 570.6584 80.13382000000001Q568.7344 75.03782000000001 568.7344 69.73382000000001V68.27782Q568.7344 62.97382 570.7104 57.82582000000001Q572.6864 52.677820000000004 576.4304 48.62182Q580.1744 44.56582 585.5304 42.12182Q590.8864 39.677820000000004 597.7504 39.677820000000004Q604.7184 39.677820000000004 610.0744 42.12182Q615.4304 44.56582 619.1744 48.62182Q622.9184 52.677820000000004 624.8424 57.82582000000001Q626.7664 62.97382 626.7664 68.27782V69.73382000000001Q626.7664 75.03782000000001 624.8944 80.13382000000001Q623.0224000000001 85.22982 619.3304 89.33782Q615.6384 93.44582 610.2304 95.88982Q604.8224 98.33382 597.7504 98.33382ZM597.7504 91.36582Q604.6144 91.36582 609.3464 88.29782Q614.0784 85.22982 616.5744 80.18582Q619.0704000000001 75.14182 619.0704000000001 69.00582Q619.0704000000001 62.765820000000005 616.5224000000001 57.72182000000001Q613.9744000000001 52.677820000000004 609.1904000000001 49.713820000000005Q604.4064000000001 46.74982000000001 597.7504 46.74982000000001Q591.1984 46.74982000000001 586.4144 49.713820000000005Q581.6304 52.677820000000004 579.0824 57.72182000000001Q576.5344 62.765820000000005 576.5344 69.00582Q576.5344 75.14182 579.0304 80.18582Q581.5264 85.22982 586.2583999999999 88.29782Q590.9904 91.36582 597.7504 91.36582Z M661.6064 98.33382Q655.5744000000001 98.33382 650.6344000000001 96.09782000000001Q645.6944000000001 93.86182000000001 642.1064000000001 89.85782Q638.5184 85.85382 636.5944000000001 80.70582Q634.6704000000001 75.55782 634.6704000000001 69.73382000000001V68.27782Q634.6704000000001 62.661820000000006 636.5424 57.51382000000001Q638.4144000000001 52.36582000000001 641.8984 48.36182000000001Q645.3824000000001 44.357820000000004 650.3224 42.01782Q655.2624000000001 39.677820000000004 661.3984 39.677820000000004Q668.3664000000001 39.677820000000004 673.6704000000001 42.69382Q678.9744000000001 45.70982000000001 682.1984 51.37782000000001Q685.4224 57.045820000000006 685.6304 65.26182L682.1984000000001 58.81382000000001V20.64582H689.9984000000001V96.56582H683.7584V72.12582H686.2544Q686.0464000000001 80.75782000000001 682.6664000000001 86.63382000000001Q679.2864000000001 92.50982 673.8264000000001 95.42182Q668.3664000000001 98.33382 661.6064 98.33382ZM662.6464000000001 91.46982Q668.2624000000001 91.46982 672.7864000000001 88.97382Q677.3104000000001 86.47782000000001 679.9104 81.84982000000001Q682.5104 77.22182000000001 682.5104 71.18982V66.19782000000001Q682.5104 60.37382 679.9104 55.95382000000001Q677.3104000000001 51.533820000000006 672.7864000000001 49.03782Q668.2624000000001 46.54182 662.5424 46.54182Q656.4064000000001 46.54182 651.8824000000001 49.50582Q647.3584000000001 52.469820000000006 644.9144000000001 57.56582Q642.4704 62.661820000000006 642.4704 69.00582Q642.4704 75.55782 644.9664 80.65382Q647.4624000000001 85.74982 652.0384000000001 88.60982Q656.6144 91.46982 662.6464000000001 91.46982Z M729.5184 98.33382Q722.4464 98.33382 717.2464 95.88982Q712.0464000000001 93.44582 708.7184 89.33782Q705.3904 85.22982 703.7784 80.13382000000001Q702.1664000000001 75.03782000000001 702.1664000000001 69.62982V68.17382Q702.1664000000001 62.869820000000004 703.7784 57.77382Q705.3904 52.677820000000004 708.7184 48.62182Q712.0464000000001 44.56582 717.0904 42.12182Q722.1344 39.677820000000004 728.8944 39.677820000000004Q737.5264000000001 39.677820000000004 743.2984000000001 43.52582Q749.0704000000001 47.37382 751.9824000000001 53.35382Q754.8944 59.33382 754.8944 66.19782000000001V70.25382H705.7024V64.22182000000001H749.4864L747.5104 67.23782Q747.5104 61.101820000000004 745.3784 56.47382Q743.2464 51.84582 739.1384 49.19382Q735.0304 46.54182 728.8944 46.54182Q722.4464 46.54182 718.1824 49.55782000000001Q713.9184 52.573820000000005 711.7864 57.56582Q709.6544 62.55782000000001 709.6544 68.90182Q709.6544 75.14182 711.7864 80.28981999999999Q713.9184 85.43782 718.3384000000001 88.45382000000001Q722.7584 91.46982 729.5184 91.46982Q736.6944000000001 91.46982 741.1664000000001 88.19382Q745.6384 84.91782 746.6784 80.44582H753.9584Q752.9184 85.95782 749.5904 89.96182Q746.2624000000001 93.96582000000001 741.1664000000001 96.14982Q736.0704000000001 98.33382 729.5184 98.33382Z"/></g><g id="slogan"><path fill="#9AA4B2" d="M205.8862 140.48138V129.34454H202.45420000000001V127.93742H210.86260000000001V129.34454H207.4306V140.48138Z M219.01360000000003 140.48138V127.95457999999999H226.22080000000003V129.3617H220.54084V133.23986H225.6202V134.62982H220.54084V139.07426H226.22080000000003V140.48138Z M238.30144000000004 140.65298Q237.16888000000003 140.65298 236.33662000000004 140.22398Q235.50436000000002 139.79498 235.04962 138.97988Q234.59488000000002 138.16478 234.59488000000002 137.04938V131.38658Q234.59488000000002 130.25402 235.04962 129.4475Q235.50436000000002 128.64098 236.33662000000004 128.21198Q237.16888000000003 127.78298 238.30144000000004 127.78298Q239.43400000000003 127.78298 240.25768000000002 128.22056Q241.08136000000002 128.65814 241.52752000000004 129.46466Q241.97368000000003 130.27118000000002 241.97368000000003 131.38658H240.42928000000003Q240.42928000000003 130.32266 239.87158000000005 129.7478Q239.31388000000004 129.17294 238.30144000000004 129.17294Q237.28900000000004 129.17294 236.71414000000004 129.73922Q236.13928000000004 130.3055 236.13928000000004 131.36942V137.04938Q236.13928000000004 138.1133 236.71414000000004 138.68816Q237.28900000000004 139.26302 238.30144000000004 139.26302Q239.31388000000004 139.26302 239.87158000000005 138.68816Q240.42928000000003 138.1133 240.42928000000003 137.04938H241.97368000000003Q241.97368000000003 138.14762 241.52752000000004 138.96272Q241.08136000000002 139.77782 240.25768000000002 140.2154Q239.43400000000003 140.65298 238.30144000000004 140.65298Z M250.41640000000004 140.48138V127.95457999999999H252.47560000000004L256.30228000000005 138.67958Q256.26796 138.25058 256.22506000000004 137.62424000000001Q256.18216000000007 136.99790000000002 256.15642 136.30292000000003Q256.13068000000004 135.60794 256.13068000000004 134.99018V127.95457999999999H257.62360000000007V140.48138H255.56440000000003L251.75488000000004 129.75638Q251.78920000000005 130.16822 251.82352000000003 130.79456Q251.85784000000004 131.4209 251.88358000000005 132.11588Q251.90932000000004 132.81086 251.90932000000004 133.44578V140.48138Z M269.8072000000001 140.65298Q268.67464000000007 140.65298 267.85954000000004 140.22398Q267.04444000000007 139.79498 266.6068600000001 138.97988Q266.1692800000001 138.16478 266.1692800000001 137.04938V131.38658Q266.1692800000001 130.25402 266.6068600000001 129.4475Q267.04444000000007 128.64098 267.85954000000004 128.21198Q268.67464000000007 127.78298 269.8072000000001 127.78298Q270.93976000000004 127.78298 271.75486 128.21198Q272.56996000000004 128.64098 273.00754000000006 129.4475Q273.44512000000003 130.25402 273.44512000000003 131.36942V137.04938Q273.44512000000003 138.16478 273.00754000000006 138.97988Q272.56996000000004 139.79498 271.75486 140.22398Q270.93976000000004 140.65298 269.8072000000001 140.65298ZM269.8072000000001 139.26302Q270.81964000000005 139.26302 271.36018 138.68816Q271.90072000000004 138.1133 271.90072000000004 137.04938V131.38658Q271.90072000000004 130.32266 271.36018 129.7478Q270.81964000000005 129.17294 269.8072000000001 129.17294Q268.81192000000004 129.17294 268.2628000000001 129.7478Q267.71368000000007 130.32266 267.71368000000007 131.38658V137.04938Q267.71368000000007 138.1133 268.2628000000001 138.68816Q268.81192000000004 139.26302 269.8072000000001 139.26302Z M282.41980000000007 140.48138V127.95457999999999H283.96420000000006V139.07426H289.62700000000007V140.48138Z M301.38160000000005 140.65298Q300.24904000000004 140.65298 299.43394 140.22398Q298.61884000000003 139.79498 298.18126000000007 138.97988Q297.74368000000004 138.16478 297.74368000000004 137.04938V131.38658Q297.74368000000004 130.25402 298.18126000000007 129.4475Q298.61884000000003 128.64098 299.43394 128.21198Q300.24904000000004 127.78298 301.38160000000005 127.78298Q302.51416 127.78298 303.32926 128.21198Q304.14436 128.64098 304.58194000000003 129.4475Q305.01952 130.25402 305.01952 131.36942V137.04938Q305.01952 138.16478 304.58194000000003 138.97988Q304.14436 139.79498 303.32926 140.22398Q302.51416 140.65298 301.38160000000005 140.65298ZM301.38160000000005 139.26302Q302.39404 139.26302 302.93458 138.68816Q303.47512 138.1133 303.47512 137.04938V131.38658Q303.47512 130.32266 302.93458 129.7478Q302.39404 129.17294 301.38160000000005 129.17294Q300.38632 129.17294 299.83720000000005 129.7478Q299.28808000000004 130.32266 299.28808000000004 131.38658V137.04938Q299.28808000000004 138.1133 299.83720000000005 138.68816Q300.38632 139.26302 301.38160000000005 139.26302Z M317.23744 140.65298Q316.10488 140.65298 315.27261999999996 140.22398Q314.44036 139.79498 313.98562000000004 138.97988Q313.53088 138.16478 313.53088 137.04938V131.38658Q313.53088 130.25402 313.98562000000004 129.4475Q314.44036 128.64098 315.27261999999996 128.21198Q316.10488 127.78298 317.23744 127.78298Q318.37 127.78298 319.19368 128.22056Q320.01736 128.65814 320.46352 129.46466Q320.90968 130.27118000000002 320.90968 131.38658H319.36528Q319.36528 130.32266 318.80758000000003 129.7478Q318.24988 129.17294 317.23744 129.17294Q316.225 129.17294 315.65014 129.73922Q315.07528 130.3055 315.07528 131.36942V137.04938Q315.07528 138.1133 315.65014 138.69674Q316.225 139.28018 317.23744 139.28018Q318.24988 139.28018 318.80758000000003 138.69674Q319.36528 138.1133 319.36528 137.04938V135.50498H316.8256V134.09786H320.90968V137.04938Q320.90968 138.14762 320.46352 138.96272Q320.01736 139.77782 319.19368 140.2154Q318.37 140.65298 317.23744 140.65298Z M329.6098 140.48138V139.07426H332.16664V129.3617H329.6098V127.95457999999999H336.30219999999997V129.3617H333.74536V139.07426H336.30219999999997V140.48138Z M344.4532 140.48138 347.7136 127.95457999999999H349.78995999999995L353.03319999999997 140.48138H351.47164L350.64795999999996 137.15234H346.8556L346.03191999999996 140.48138ZM347.16447999999997 135.84818H350.32192L349.36096 131.98718Q349.08639999999997 130.88894 348.93196 130.15106Q348.77752 129.41318 348.7432 129.1901Q348.70887999999997 129.41318 348.55444 130.15106Q348.4 130.88894 348.12543999999997 131.97002Z M382.4111199999999 143.57018 380.57499999999993 140.53286 380.74659999999994 140.63582Q380.6779599999999 140.63582 380.56641999999994 140.64440000000002Q380.45487999999995 140.65298 380.31759999999997 140.65298Q379.16787999999997 140.65298 378.31845999999996 140.19824Q377.46903999999995 139.7435 377.00571999999994 138.91124000000002Q376.54239999999993 138.07898 376.54239999999993 136.96358V131.47238Q376.54239999999993 130.33982 377.00571999999994 129.51614Q377.46903999999995 128.69246 378.31845999999996 128.23772Q379.16787999999997 127.78298 380.31759999999997 127.78298Q381.48447999999996 127.78298 382.3253199999999 128.23772Q383.16615999999993 128.69246 383.62947999999994 129.51614Q384.09279999999995 130.33982 384.09279999999995 131.47238V136.96358Q384.09279999999995 138.1133 383.59515999999996 138.97129999999999Q383.09752 139.8293 382.18803999999994 140.2583L384.19575999999995 143.57018ZM380.31759999999997 139.28018Q381.33003999999994 139.28018 381.93922 138.64526Q382.54839999999996 138.01034 382.54839999999996 136.96358V131.47238Q382.54839999999996 130.40846 381.93922 129.78212Q381.33003999999994 129.15578 380.31759999999997 129.15578Q379.30515999999994 129.15578 378.69597999999996 129.78212Q378.0867999999999 130.40846 378.0867999999999 131.47238V136.96358Q378.0867999999999 138.01034 378.69597999999996 138.64526Q379.30515999999994 139.28018 380.31759999999997 139.28018Z M396.10479999999995 140.65298Q394.3544799999999 140.65298 393.42783999999995 139.68344000000002Q392.5011999999999 138.7139 392.5011999999999 137.04938V127.95457999999999H394.0455999999999V137.04938Q394.0455999999999 138.07898 394.5518199999999 138.67958Q395.05803999999995 139.28018 396.10479999999995 139.28018Q397.1343999999999 139.28018 397.64919999999995 138.67958Q398.16399999999993 138.07898 398.16399999999993 137.04938V127.95457999999999H399.7083999999999V137.04938Q399.7083999999999 138.73106 398.7903399999999 139.69202Q397.87227999999993 140.65298 396.10479999999995 140.65298Z M408.4599999999999 140.48138V127.95457999999999H415.6671999999999V129.3617H409.98723999999993V133.23986H415.06659999999994V134.62982H409.98723999999993V139.07426H415.6671999999999V140.48138Z M439.89711999999986 140.48138V127.95457999999999H443.7752799999999Q444.89067999999986 127.95457999999999 445.7315199999999 128.40931999999998Q446.5723599999999 128.86406 447.0356799999999 129.67058Q447.4989999999999 130.4771 447.4989999999999 131.55818Q447.4989999999999 132.82802 446.8383399999999 133.7375Q446.1776799999999 134.64698 445.0451199999999 134.99018L447.67059999999987 140.48138H445.85163999999986L443.44923999999986 135.16178H441.44151999999985V140.48138ZM441.44151999999985 133.77182H443.7752799999999Q444.7362399999999 133.77182 445.3196799999999 133.16264Q445.9031199999999 132.55346 445.9031199999999 131.55818Q445.9031199999999 130.54574 445.3196799999999 129.94513999999998Q444.7362399999999 129.34454 443.7752799999999 129.34454H441.44151999999985Z M455.8215999999999 140.48138V127.95457999999999H463.0287999999999V129.3617H457.3488399999999V133.23986H462.4281999999999V134.62982H457.3488399999999V139.07426H463.0287999999999V140.48138Z M475.10943999999984 140.65298Q473.8739199999998 140.65298 472.99017999999984 140.24114Q472.10643999999985 139.8293 471.62595999999985 139.0571Q471.14547999999985 138.2849 471.12831999999986 137.22098H472.67271999999986Q472.67271999999986 138.16478 473.3162199999998 138.71390000000002Q473.95971999999983 139.26302 475.10943999999984 139.26302Q476.1905199999999 139.26302 476.79969999999986 138.73106Q477.40887999999984 138.1991 477.40887999999984 137.2553Q477.40887999999984 136.50026 477.00561999999985 135.93398000000002Q476.60235999999986 135.3677 475.84731999999985 135.14462L474.14847999999984 134.61266Q472.86147999999986 134.21798 472.1664999999998 133.29134Q471.4715199999998 132.3647 471.4715199999998 131.11202Q471.4715199999998 130.09958 471.92625999999984 129.35312Q472.38099999999986 128.60666 473.2046799999998 128.18624Q474.02835999999985 127.76582 475.1437599999999 127.76582Q476.79111999999986 127.76582 477.78639999999984 128.68388000000002Q478.7816799999998 129.60194 478.79883999999987 131.12918H477.2544399999999Q477.2544399999999 130.20254 476.69673999999986 129.67916Q476.13903999999985 129.15578 475.1265999999998 129.15578Q474.13131999999985 129.15578 473.57361999999983 129.63626Q473.0159199999998 130.11674 473.0159199999998 130.97474Q473.0159199999998 131.74694 473.4277599999998 132.31322Q473.83959999999985 132.8795 474.61179999999985 133.11974L476.32779999999985 133.66886Q477.58047999999985 134.06354 478.26687999999984 135.00734Q478.95327999999984 135.95114 478.95327999999984 137.22098Q478.95327999999984 138.25058 478.47279999999984 139.02278Q477.99231999999984 139.79498 477.12573999999984 140.22398Q476.25915999999984 140.65298 475.10943999999984 140.65298Z M490.82799999999986 140.65298Q489.69543999999985 140.65298 488.8803399999998 140.22398Q488.06523999999985 139.79498 487.6276599999999 138.97988Q487.19007999999985 138.16478 487.19007999999985 137.04938V131.38658Q487.19007999999985 130.25402 487.6276599999999 129.4475Q488.06523999999985 128.64098 488.8803399999998 128.21198Q489.69543999999985 127.78298 490.82799999999986 127.78298Q491.9605599999998 127.78298 492.7756599999998 128.21198Q493.5907599999998 128.64098 494.02833999999984 129.4475Q494.4659199999998 130.25402 494.4659199999998 131.36942V137.04938Q494.4659199999998 138.16478 494.02833999999984 138.97988Q493.5907599999998 139.79498 492.7756599999998 140.22398Q491.9605599999998 140.65298 490.82799999999986 140.65298ZM490.82799999999986 139.26302Q491.84043999999983 139.26302 492.3809799999998 138.68816Q492.9215199999998 138.1133 492.9215199999998 137.04938V131.38658Q492.9215199999998 130.32266 492.3809799999998 129.7478Q491.84043999999983 129.17294 490.82799999999986 129.17294Q489.8327199999998 129.17294 489.28359999999986 129.7478Q488.73447999999985 130.32266 488.73447999999985 131.38658V137.04938Q488.73447999999985 138.1133 489.28359999999986 138.68816Q489.8327199999998 139.26302 490.82799999999986 139.26302Z M503.44059999999985 140.48138V127.95457999999999H504.98499999999984V139.07426H510.64779999999985V140.48138Z M521.3384799999998 140.48138 518.1123999999998 127.95457999999999H519.7082799999998L521.8361199999998 136.46594Q522.0591999999998 137.35826 522.2136399999998 138.12188Q522.3680799999998 138.8855 522.4367199999998 139.28018Q522.5053599999998 138.8855 522.6512199999997 138.12188Q522.7970799999998 137.35826 523.0201599999998 136.46594L525.1308399999998 127.95457999999999H526.6923999999998L523.4491599999998 140.48138Z M534.7575999999998 140.48138V127.95457999999999H541.9647999999997V129.3617H536.2848399999998V133.23986H541.3641999999998V134.62982H536.2848399999998V139.07426H541.9647999999997V140.48138Z"/></g></svg>